<?xml version="1.0" encoding="UTF-8"?>
<!DOCTYPE svg PUBLIC "-//W3C//DTD SVG 1.1//EN" "http://www.w3.org/Graphics/SVG/1.1/DTD/svg11.dtd">
<!-- Creator: CorelDRAW -->
<svg xmlns="http://www.w3.org/2000/svg" xml:space="preserve" width="393.128mm" height="110.279mm" version="1.1" style="shape-rendering:geometricPrecision; text-rendering:geometricPrecision; image-rendering:optimizeQuality; fill-rule:evenodd; clip-rule:evenodd"
viewBox="0 0 39312.82 11027.92"
 xmlns:xlink="http://www.w3.org/1999/xlink"
 xmlns:xodm="http://www.corel.com/coreldraw/odm/2003">
 <defs>
  <style type="text/css">
   <![CDATA[
    .fil0 {fill:#1A1A1A;fill-rule:nonzero}
   ]]>
  </style>
 </defs>
 <g id="Слой_x0020_1">
  <metadata id="CorelCorpID_0Corel-Layer"/>
  <path class="fil0" d="M5821.2 10830.43l-2112.83 0c-454.84,0 -839.86,-291.99 -962.49,-729.99l-2742.5 -9794.61c-7.45,-26.56 -2.48,-52.6 14.18,-74.6 16.69,-21.97 40.43,-33.77 68.02,-33.77l2034.84 0c466.36,0 859.89,308.82 970.82,761.76l1377.12 5623.1c9.33,38.16 42.1,64.35 81.36,65.04 39.27,0.71 72.93,-24.27 83.66,-62.06l1793.01 -6325.76c10.57,-37.28 43.36,-62.08 82.1,-62.08l1321.7 0c453.71,0 837.91,290.44 961.63,726.96l1604.92 5662.23c10.7,37.76 44.31,62.71 83.55,62.05 39.27,-0.66 72.01,-26.75 81.41,-64.85l1490.54 -6030.46c8.63,-34.86 36.33,-59.58 71.96,-64.17 35.59,-4.59 68.68,12.28 85.84,43.81l1805.38 3312.42c11.04,20.25 13.47,41.53 7.29,63.74l-1910.66 6858.79c-10.43,37.45 -43.36,62.45 -82.23,62.45l-2050.58 0c-453.68,0 -837.84,-290.36 -961.6,-726.85l-1413.06 -4983.57c-10.57,-37.29 -43.39,-62.08 -82.13,-62.08 -38.73,0 -71.56,24.79 -82.12,62.08l-1619.13 5710.42zm27977.65 -10830.43c3045.27,0 5513.97,2468.69 5513.97,5513.96 0,3045.27 -2468.7,5513.96 -5513.97,5513.96 -3045.29,0 -5513.96,-2468.69 -5513.96,-5513.96 0,-3045.27 2468.67,-5513.96 5513.96,-5513.96zm0 2825.33c-1484.91,0 -2688.65,1203.74 -2688.65,2688.63 0,1484.89 1203.74,2688.63 2688.65,2688.63 1484.89,0 2688.63,-1203.74 2688.63,-2688.63 0,-1484.89 -1203.74,-2688.63 -2688.63,-2688.63zm-14351.41 -2627.87l2855.57 0c31,0 57.62,15.18 73.44,41.85 15.79,26.67 16.32,57.3 1.42,84.5l-3505.15 6401.39c-7.21,13.15 -10.48,25.99 -10.48,40.98l0 3978.91c0,47 -38.35,85.34 -85.35,85.34l-1634.16 0c-550.51,0 -999.52,-448.98 -999.52,-999.49l0 -3034.47c0,-14.94 -3.27,-27.72 -10.4,-40.85l-3505.66 -6431.97c-14.81,-27.19 -14.26,-57.8 1.56,-84.42 15.82,-26.61 42.41,-41.77 73.38,-41.77l2279.84 0c394.03,0 731.37,212.52 901.53,567.91l1534.98 3206.14c14.52,30.31 43.25,48.43 76.86,48.48 33.59,0.05 62.4,-17.98 77,-48.24l1798.28 -3726.02c14.57,-30.23 43.3,-48.27 76.86,-48.27zm9278.98 2117.15l-3655.37 5756.87c-17.14,26.99 -18.17,58.84 -2.75,86.85 15.39,28.02 42.83,44.26 74.78,44.26l3312.76 0c518.62,1028.57 1325.37,1886.87 2314.3,2468.93 33.64,19.81 49.33,58.33 39.06,96.01 -10.28,37.66 -43.31,62.9 -82.36,62.9l-8263.62 0c-550.43,0 -999.49,-448.98 -999.49,-999.49l0 -1071.9c0,-16.95 4.22,-31.47 13.3,-45.76l3655.36 -5756.84c17.16,-26.99 18.16,-58.84 2.74,-86.85 -15.39,-28.02 -42.83,-44.26 -74.78,-44.26l-3376.4 0c-31,0 -57.62,-15.16 -73.43,-41.85 -15.79,-26.67 -16.32,-57.3 -1.43,-84.5l1345.46 -2457.16c15.4,-28.07 42.86,-44.36 74.87,-44.36l4710.79 0c550.52,0 999.52,449.06 999.52,999.52l0 1071.87c0,16.95 -4.22,31.48 -13.31,45.76z"/>
 </g>
</svg>
